<svg xmlns="http://www.w3.org/2000/svg" viewBox="0 0 32 40" x="0px" y="0px"><g data-name="Layer 2"><path d="M30,14.3a2,2,0,0,1-1.89,1.34h-1V28A2.08,2.08,0,0,1,25,30H20.5a2.08,2.08,0,0,1-2.13-2V23H13.63v5a2.08,2.08,0,0,1-2.13,2H7a2.08,2.08,0,0,1-2.13-2V15.64h-1A2,2,0,0,1,2.6,12.08L14.75,2.36a2,2,0,0,1,2.5,0L29.4,12.08A2,2,0,0,1,30,14.3Z"/></g><text x="0" y="47" fill="#000000" font-size="5px" font-weight="bold" font-family="'Helvetica Neue', Helvetica, Arial-Unicode, Arial, Sans-serif">Created by Rifaldi Ridha Aisy</text><text x="0" y="52" fill="#000000" font-size="5px" font-weight="bold" font-family="'Helvetica Neue', Helvetica, Arial-Unicode, Arial, Sans-serif">from the Noun Project</text></svg>